<svg xmlns="http://www.w3.org/2000/svg" xmlns:xlink="http://www.w3.org/1999/xlink" id="Layer_1" x="0" y="0" version="1.1" viewBox="0 0 32 32" xml:space="preserve" style="enable-background:new 0 0 32 32"><style type="text/css">.st0{fill:#ffd93b}.st1{fill:#f4c534}.st2{fill:#3e4347}.st3{fill:#fff}.st6{fill:#e24b4b}</style><g><g><g><g><g><g><g><g><g><g><g><g><g><g><g><g><g><g><g><g><g><g><circle cx="16" cy="16.212" r="15.788" class="st0"/></g></g></g></g></g></g><g><g><g><g><g><g><path d="M26.207,20.115c-0.918,4.806-5.141,8.427-10.203,8.427 c-5.072,0-9.295-3.621-10.203-8.427c-0.089-0.464,0.345-0.859,0.799-0.73 c6.256,1.727,12.522,1.717,18.808-0.01C25.862,19.256,26.296,19.651,26.207,20.115z" class="st2"/></g></g></g></g></g></g><path d="M7.674,19.643c1.503,2.885,4.483,3.733,8.289,3.733c3.792,0,6.759-0.845,8.268-3.71 C18.703,20.994,13.183,20.99,7.674,19.643z" class="st3"/><g><g><g><g><g><g><path d="M31.788,16.212C31.788,24.935,24.718,32,16,32c-4.963,0-9.394-2.289-12.29-5.876 c2.709,2.191,6.157,3.498,9.912,3.498c8.718,0,15.788-7.065,15.788-15.788c0-3.755-1.307-7.204-3.498-9.912 C29.494,6.818,31.788,11.248,31.788,16.212z" class="st1"/></g></g></g></g></g></g></g></g></g></g></g></g></g></g></g></g></g></g></g></g></g><g><g><path d="M14.506,10.041c0,3.428-4.063,7.684-8.22,6.085c-1.9-0.74-3.277-2.538-3.492-4.578 C2.597,9.301,3.74,7.176,5.706,6.118C8.918,4.487,14.506,6.215,14.506,10.041z" class="st3"/><path d="M25.722,16.126c-2.036,0.783-4.095,0.222-5.739-1.227c-2.639-2.305-3.776-6.248-0.318-8.36 c1.975-1.198,4.756-1.376,6.61-0.421C30.425,8.33,30.159,14.399,25.722,16.126z" class="st3"/></g><g><path d="M30.544,5.175H30.02c-1.451,0-2.921-0.084-4.325-0.44c-2.593-0.665-5.655,0.131-7.368,1.91 c-0.552,0.562-1.329,0.833-2.116,0.833h-0.393c-0.796,0-1.582-0.272-2.134-0.842C11.942,4.857,8.861,4.07,6.296,4.735 c-1.395,0.356-2.846,0.44-4.278,0.44H1.456c-0.346,0-0.627,0.281-0.627,0.637v1.957c0,0.253,0.168,0.449,0.393,0.562 c0.29,0.149,0.487,0.449,0.487,0.796C1.709,9.2,1.7,9.285,1.671,9.36c-1.713,6.347,5.758,11.44,11.047,6.338 c1.114-1.104,1.919-2.378,2.284-3.819c0.112-0.449,0.534-0.74,1.002-0.74c0.459,0,0.889,0.29,0.992,0.74 c0.365,1.442,1.17,2.715,2.284,3.819c5.262,5.084,12.76,0.056,11.047-6.347c-0.112-0.421,0.094-0.833,0.449-1.02 c0.225-0.113,0.393-0.319,0.393-0.571V5.812C31.171,5.455,30.89,5.175,30.544,5.175z M11.708,14.546 c-3.632,3.211-8.051,0.655-8.444-3.052c-0.187-2.06,0.871-3.997,2.668-4.962c2.856-1.461,8.108,0.037,8.108,3.511 C14.039,11.775,12.99,13.432,11.708,14.546z M28.737,11.494c-0.393,3.707-4.803,6.263-8.445,3.052 c-1.273-1.115-2.322-2.772-2.322-4.503c0-3.474,5.252-4.971,8.089-3.511C27.866,7.497,28.924,9.434,28.737,11.494z" class="st2"/></g><g><g><g><circle cx="22.718" cy="11.181" r="2.428" class="st2"/></g><g><ellipse cx="23.629" cy="10.265" class="st3" rx=".52" ry=".745" transform="matrix(0.7071 -0.7071 0.7071 0.7071 -0.3375 19.7149)"/></g></g><g><g><circle cx="9.514" cy="11.181" r="2.428" class="st2"/></g><g><ellipse cx="10.425" cy="10.265" class="st3" rx=".52" ry=".745" transform="matrix(0.7071 -0.7071 0.7071 0.7071 -4.205 10.378)"/></g></g></g></g><g><g><g><path d="M12.157,1.621c0.039-0.124-5.726,0.03-7.439,3.233C4.283,4.848,8.504-3.4,12.157,1.621z" class="st2"/></g></g><g><g><path d="M19.843,1.621c-0.039-0.124,5.726,0.03,7.439,3.233C27.717,4.848,23.496-3.4,19.843,1.621z" class="st2"/></g></g></g><path d="M15.127,25.144c-3.299,0-4.725-1.788-5.384,0.106c-0.127,0.364-0.162,0.729-0.132,1.088 c1.763,1.378,3.979,2.204,6.393,2.204c2.413,0,4.629-0.829,6.394-2.211c0.029-0.357-0.007-0.72-0.133-1.082 C21.606,23.356,18.426,25.144,15.127,25.144z" class="st6"/></g></svg>