<svg xmlns="http://www.w3.org/2000/svg" xmlns:xlink="http://www.w3.org/1999/xlink" id="Layer_1" x="0" y="0" version="1.1" viewBox="0 0 32 32" xml:space="preserve" style="enable-background:new 0 0 32 32"><style type="text/css">.st0{fill:#ffd93b}.st1{fill:#f4c534}.st2{fill:#3e4347}.st3{fill:#fff}.st6{fill:#e24b4b}</style><g><circle cx="16" cy="16" r="16" class="st0"/><path d="M32,16c0,8.84-7.165,16-16,16c-5.03,0-9.52-2.32-12.455-5.955c2.745,2.22,6.24,3.545,10.045,3.545 c8.835,0,16-7.16,16-16c0-3.805-1.325-7.3-3.545-10.045C29.675,6.48,32,10.97,32,16z" class="st1"/><path d="M26.595,21.304c0.247,3.397-4.116,7.724-10.603,7.72C9.505,29.063,5.13,24.736,5.408,21.271 c0.007-0.325,0.435-0.483,0.846-0.355c6.566,2.069,12.927,2.094,19.501,0.043C26.166,20.83,26.591,20.983,26.595,21.304z" class="st2"/><path d="M6.491,20.997c0.321,1.902,4.491,3.886,9.691,3.806c5.131,0.011,9.289-2.008,9.684-3.861 c-0.038,0.008-0.073,0.007-0.111,0.016C19.261,22.988,12.975,22.981,6.491,20.997z" class="st3"/><path d="M32,12.017c0,4.403-3.582,7.985-7.986,7.985c-4.414,0-7.996-3.583-7.996-7.985 c0-4.414,3.582-7.996,7.996-7.996C28.418,4.021,32,7.603,32,12.017z" class="st1"/><path d="M30.429,12.017c0,3.538-2.877,6.415-6.415,6.415c-3.548,0-6.425-2.877-6.425-6.415 c0-3.548,2.877-6.425,6.425-6.425C27.552,5.592,30.429,8.469,30.429,12.017z" class="st3"/><circle cx="24.011" cy="12.013" r="3.452" class="st2"/><ellipse cx="25.19" cy="10.835" class="st3" rx=".766" ry="1.136" transform="matrix(0.7071 -0.7071 0.7071 0.7071 -0.2839 20.9853)"/><path d="M19.45,10.284c0,5.358-4.36,9.718-9.719,9.718C4.36,20.002,0,15.642,0,10.284c0-5.372,4.36-9.731,9.731-9.731 C15.09,0.553,19.45,4.912,19.45,10.284z" class="st1"/><path d="M17.538,10.284c0,4.306-3.501,7.807-7.807,7.807c-4.318,0-7.819-3.501-7.819-7.807 c0-4.318,3.501-7.819,7.819-7.819C14.037,2.465,17.538,5.966,17.538,10.284z" class="st3"/><circle cx="9.727" cy="10.28" r="4.201" class="st2"/><ellipse cx="11.161" cy="8.846" class="st3" rx=".933" ry="1.383" transform="matrix(0.7071 -0.7071 0.7071 0.7071 -2.986 10.4829)"/><path d="M15.992,29.024c2.649,0.001,4.935-0.726,6.706-1.811c-1.241-1.594-3.527-2.286-5.461-1.36 c-0.791,0.371-1.668,0.386-2.461,0.019c-1.901-0.873-4.21-0.269-5.455,1.388C11.088,28.332,13.361,29.04,15.992,29.024z" class="st6"/></g></svg>