<svg xmlns="http://www.w3.org/2000/svg" xmlns:xlink="http://www.w3.org/1999/xlink" id="Layer_1" x="0" y="0" version="1.1" viewBox="0 0 32 32" xml:space="preserve" style="enable-background:new 0 0 32 32"><style type="text/css">.st0{fill:#ffd93b}.st1{fill:#f4c534}.st2{fill:#3e4347}.st3{fill:#fff}.st4{fill:#5a5f63}</style><g><g><g><g><g><g><g><g><g><g><g><g><g><g><g><g><g><g><g><g><g><g><g><g><g><g><g><circle cx="16" cy="16" r="16" class="st0"/></g></g></g></g></g><g><g><g><g><g><path d="M32,16c0,8.84-7.165,16-16,16c-5.03,0-9.52-2.32-12.455-5.955 c2.745,2.22,6.24,3.545,10.045,3.545c8.835,0,16-7.16,16-16c0-3.805-1.325-7.3-3.545-10.045 C29.675,6.48,32,10.97,32,16z" class="st1"/></g></g></g></g></g></g></g></g></g></g></g></g></g></g></g></g></g></g></g></g></g></g></g></g></g></g><g><g><g><g><g><path d="M16.844,14.561c0.13,3.472,3.058,6.285,6.542,6.285s6.201-2.813,6.071-6.285 c-0.13-3.472-3.058-6.293-6.542-6.293C19.431,8.268,16.714,11.089,16.844,14.561z" class="st1"/></g><g><path d="M17.874,14.237c-0.192,2.911,2.015,5.417,4.929,5.596c2.914,0.179,5.432-2.037,5.624-4.948 c0.192-2.92-2.014-5.425-4.928-5.604C20.584,9.102,18.066,11.317,17.874,14.237z" class="st3"/></g><g><g><path d="M18.66,14.469c0,1.39,1.114,2.496,2.496,2.496c1.374,0,2.496-1.114,2.504-2.496 c-0.008-1.382-1.122-2.496-2.504-2.496S18.66,13.096,18.66,14.469z" class="st2"/></g><g><path d="M19.632,14.176c0.226,0.218,0.62,0.176,0.896-0.101c0.276-0.276,0.327-0.678,0.109-0.896 c-0.218-0.218-0.62-0.176-0.896,0.1C19.464,13.556,19.414,13.958,19.632,14.176z" class="st4"/></g></g></g><g><path d="M17.548,8.799c0,0,3.062-2.879,8.402-2.408C25.95,6.391,18.883,3.695,17.548,8.799z" class="st2"/></g></g></g><g><g><g><g><path d="M14.733,14.561c-0.13,3.472-3.058,6.285-6.542,6.285c-3.484,0-6.201-2.813-6.071-6.285 c0.13-3.472,3.058-6.293,6.542-6.293C12.146,8.268,14.863,11.089,14.733,14.561z" class="st1"/></g><g><path d="M13.703,14.237c0.192,2.911-2.015,5.417-4.929,5.596c-2.914,0.179-5.432-2.037-5.624-4.948 c-0.193-2.92,2.014-5.425,4.928-5.604C10.992,9.102,13.51,11.317,13.703,14.237z" class="st3"/></g><g><g><path d="M12.916,14.469c0,1.39-1.114,2.496-2.496,2.496c-1.374,0-2.496-1.114-2.504-2.496 c0.008-1.382,1.122-2.496,2.504-2.496S12.916,13.096,12.916,14.469z" class="st2"/></g><g><path d="M11.945,14.176c-0.226,0.218-0.62,0.176-0.896-0.101c-0.276-0.276-0.327-0.678-0.109-0.896 c0.218-0.218,0.62-0.176,0.896,0.1C12.112,13.556,12.163,13.958,11.945,14.176z" class="st4"/></g></g></g><g><path d="M14.028,8.799c0,0-3.062-2.879-8.402-2.408C5.626,6.391,12.693,3.695,14.028,8.799z" class="st2"/></g></g></g></g><g><path d="M23.631,7.721c-3.431,0-6.311,2.382-7.09,5.578c-0.478-0.182-1.028-0.182-1.506,0.001 c-0.779-3.196-3.659-5.579-7.091-5.579c-4.028,0-7.305,3.278-7.305,7.305s3.278,7.305,7.305,7.305 c4.028,0,7.305-3.278,7.305-7.305c0-0.511,0.412-0.552,0.539-0.552c0.125,0,0.538,0.041,0.538,0.552 c0,4.028,3.278,7.305,7.305,7.305c4.028,0,7.305-3.278,7.305-7.305S27.659,7.721,23.631,7.721z M7.944,20.964 c-3.274,0-5.938-2.663-5.938-5.938S4.67,9.089,7.944,9.089c3.274,0,5.938,2.663,5.938,5.938S11.219,20.964,7.944,20.964z M23.631,20.964c-3.274,0-5.938-2.663-5.938-5.938s2.663-5.938,5.938-5.938s5.938,2.663,5.938,5.938S26.906,20.964,23.631,20.964z" class="st2"/></g><g><ellipse cx="16" cy="25.858" class="st2" rx="3.039" ry="2.75"/></g></g></svg>